<svg xmlns="http://www.w3.org/2000/svg" width="153" height="58" viewBox="0 0 153 58"><g fill="none" transform="translate(.8 .9)"><path fill="#0080C4" d="M29.2421867 47.1874915.730083813 47.1874915-2.75933909e-15 46.5234259.466010944 43.8632801 1.39803283 42.5351489 16.8191117 30.5703179C24.4616911 24.5898442 30.644103 19.8675999 30.644103 11.0949439 30.644103 7.1066669 28.4499681 3.32032798 22.2675563 3.32032798 13.6269367 3.32032798 10.5706816 9.30080176 9.77069613 13.9531444L9.10663053 14.6172099 6.44648473 14.6172099 5.78241913 13.9531444C7.17656854 5.98047378 12.2949221 0 22.2636729 0 30.6402196 0 34.6906314 5.11835354 34.6906314 11.0988273 34.6906314 19.8714833 29.2421867 25.4558478 21.7316437 31.238267L6.31056487 43.203098 6.17852844 43.8671635 29.6421795 43.8671635 30.3062451 44.5312291 29.9062523 46.5273094 29.2421867 47.1874915ZM69.1599075.664065595 44.6360816.664065595 43.9059978 1.32813119 38.5235714 24.5898442 39.187637 25.2539098 41.7817646 25.2539098 43.1098958 24.5898442C45.0360743 21.2656328 48.8262967 18.6093704 54.1427049 18.6093704 60.2590985 18.6093704 62.9153609 22.2636729 62.9153609 27.7160009 62.9153609 28.2441466 62.9425449 29.1606348 62.9425449 29.1606348L63.5910768 29.8324673 63.3425376 29.8324673 66.511412 29.8324673 66.511412 29.8324673 67.0007235 29.152868C67.0279075 28.6752068 67.0395577 28.1975455 67.0395577 27.7160009 67.0395577 20.1394396 62.651288 15.285159 54.4766794 15.285159 50.4884024 15.285159 47.3001108 16.2831991 44.1739541 19.273436L43.5098885 19.273436 46.8340999 4.65234259 47.4981655 3.988277 68.8336999 3.988277 69.4977655 3.3242114 69.83174 1.33201462 69.1599075.664065595Z"/><path fill="#0080BF" d="M12.1861862 3.49119866C11.2075632 2.99023689 9.94156681 2.62907841 8.72217151 2.62907841 7.52996017 2.62907841 5.92610584 3.10673963 5.92610584 4.53972328 5.92610584 7.21540279 11.6075559 7.04841553 11.6075559 11.681341 11.6075559 15.7667036 8.40761412 17.2462884 4.75331163 17.2462884 3.15334072 17.2462884 1.50676872 16.8657128 5.51867819e-15 16.3142665L.858236822 13.4754831C2.14753377 14.0735305 3.51061578 14.6210934 4.94359943 14.6210934 6.54357034 14.6210934 8.1202407 13.8094576 8.1202407 12.0153155 8.1202407 9.0056615 2.43490718 9.48332271 2.43490718 5.04068505 2.43490718 1.53006927 5.4445612 5.51867819e-15 8.64450301 5.51867819e-15 10.1007872 5.51867819e-15 11.6036725.190287802 12.9667545.741734086L12.1861862 3.49119866ZM13.5143174 4.66399287 15.8327218 4.66399287 16.3802847 2.13200007 19.8209988 1.00969038 19.0326636 4.66399287 21.898631 4.66399287 21.3976692 7.00569786 18.5317019 7.00569786 17.3627911 12.376474C17.289006 12.6638474 17.2191044 13.0949075 17.2191044 13.5725687 17.2191044 14.3104194 17.7200662 14.7647801 18.4384997 14.7647801 19.0093631 14.7647801 19.5841099 14.6482773 19.9918695 14.4812901L19.4404232 16.9627984C18.8889769 17.0831845 18.267629 17.2501718 17.7200662 17.2501718 15.5453484 17.2501718 14.0191626 16.391935 14.0191626 14.0269294 14.0191626 13.071607 14.2094504 12.1395851 14.4230387 11.1609621L15.3317601 7.00569786 13.017239 7.00569786 13.5143174 4.66399287ZM34.4420922 9.77457955C34.4420922 14.0968311 31.4557387 17.2501718 27.1101867 17.2501718 23.6228714 17.2501718 21.5219388 15.0987546 21.5219388 11.6386233 21.5219388 7.52996017 24.6752795 4.37661945 28.8072432 4.37661945 32.1236878 4.37661945 34.4420922 6.38434994 34.4420922 9.77457955ZM31.0984637 9.7978801C31.0984637 8.19790919 30.5509008 6.85812773 28.6635565 6.85812773 26.1315637 6.85812773 24.8655673 9.65419339 24.8655673 11.8755122 24.8655673 13.4987837 25.5335163 14.7647801 27.3742595 14.7647801 29.8557678 14.7647801 31.0984637 11.8988128 31.0984637 9.7978801ZM106.910677 9.77457955C106.910677 14.0968311 103.924324 17.2501718 99.5787719 17.2501718 96.0914567 17.2501718 93.990524 15.0987546 93.990524 11.6386233 93.990524 7.52996017 97.1438647 4.37661945 101.275828 4.37661945 104.592273 4.37661945 106.910677 6.38434994 106.910677 9.77457955ZM103.567049 9.7978801C103.567049 8.19790919 103.019486 6.85812773 101.132142 6.85812773 98.6001489 6.85812773 97.3341525 9.65419339 97.3341525 11.8755122 97.3341525 13.4987837 98.0021016 14.7647801 99.8428448 14.7647801 102.324353 14.7647801 103.567049 11.8988128 103.567049 9.7978801ZM37.0478701 6.31056487C37.1410723 5.78630256 37.2381579 5.23485627 37.3352435 4.66010944L40.3914986 4.66010944 39.9604385 6.97851389 40.0070396 6.97851389C40.5817864 5.63873242 42.1584568 4.37273603 43.6380415 4.37273603 44.0458011 4.37273603 44.4729778 4.39603657 44.8574368 4.49312219L44.1894878 7.62316236C43.8322127 7.5027762 43.3778521 7.43287456 42.9700925 7.43287456 40.7021726 7.43287456 39.6031634 9.46390559 39.1954038 11.4444521L38.0497936 16.9589149 34.8498518 16.9589149 37.0478701 6.31056487ZM46.6205115 6.02319145C46.7137137 5.54553024 46.8107993 5.04456847 46.8845844 4.66010944L49.8709379 4.66010944 49.5835645 6.31056487 49.6301656 6.31056487C50.4884024 5.04456847 51.8980855 4.37661945 53.4048542 4.37661945 54.8611384 4.37661945 56.3679071 5.2387397 56.531011 6.71832445L56.5776121 6.71832445C57.3892478 5.11835354 59.1795065 4.37661945 60.8998636 4.37661945 62.7406068 4.37661945 64.3172771 5.87950475 64.3172771 7.74354852 64.3172771 8.84255767 64.0299037 10.0852535 63.7658309 11.087177L62.4765339 16.9627984 59.2765921 16.9627984 60.565889 10.9667909C60.7328763 10.2250568 60.9697652 9.07944656 60.9697652 8.33771248 60.9697652 7.42899114 60.2785156 6.85812773 59.4629965 6.85812773 57.2416776 6.85812773 56.6941148 9.43672162 56.2863552 11.1104776L55.0203588 16.9627984 51.820417 16.9627984 53.1097139 10.9667909C53.2767012 10.2250568 53.5174735 9.07944656 53.5174735 8.33771248 53.5174735 7.42899114 52.8223405 6.85812773 52.0107048 6.85812773 49.8398705 6.85812773 49.2418231 9.46390559 48.8340635 11.1104776L47.5680671 16.9627984 44.3681253 16.9627984 46.6205115 6.02319145ZM80.7519298 3.82517317C79.4626328 2.99023689 77.8626619 2.63296183 76.1190043 2.63296183 72.0569422 2.63296183 69.5016489 5.8096031 69.5016489 9.75127901 69.5016489 12.4502591 71.3656927 14.6249768 74.2083594 14.6249768 74.9733941 14.6249768 75.4743558 14.6249768 75.8549314 14.4579895L76.7869533 10.0425358 73.253037 10.0425358 73.8005999 7.41734086 80.561642 7.41734086 78.6509971 16.5162045C77.6723741 16.9200807 75.8083303 17.2579386 74.1850589 17.2579386 69.2880606 17.2579386 66.0182171 15.0133193 66.0182171 9.85224805 66.0182171 3.76303837 70.0064941.0116502736 76.0258021.0116502736 77.8898459.0116502736 79.8470919.275723142 81.5907495.943672162L80.7519298 3.82517317ZM84.1654599 11.8017272C84.1654599 14.0735305 85.3848553 14.9084668 87.5789901 14.9084668 88.8915876 14.9084668 90.157584 14.5744923 91.3536788 14.0269294L90.9459192 16.5589222C89.7032233 16.9394978 88.3440247 17.2501718 87.0314273 17.2501718 83.4975109 17.2501718 81.1092048 15.5336981 81.1092048 11.8755122 81.1092048 8.05422249 84.0722578 4.37661945 88.1071359 4.37661945 91.1400904 4.37661945 93.1478209 5.92998926 93.1478209 9.06002944 93.1478209 9.99205133 93.0274347 10.8968892 92.8371469 11.8056106L84.1654599 11.8056106 84.1654599 11.8017272ZM90.0177807 9.6075923C90.0643818 9.32021888 90.0915658 9.06002944 90.0915658 8.77265602 90.0915658 7.46005853 89.4003162 6.71832445 88.0605348 6.71832445 86.0799882 6.71832445 85.2217514 7.9144192 84.5965201 9.6075923L90.0177807 9.6075923 90.0177807 9.6075923Z" transform="translate(36.314 30.015)"/><g fill="#0080BF" transform="translate(99.412 51.65)"><path d="M1.5028853 4.93971601C.613581077 4.93971601-2.20747127e-14 4.41933712-2.20747127e-14 3.54945002-2.20747127e-14 2.39607294.62523135 1.32424777 1.92617857 1.32424777 2.81548279 1.32424777 3.43683071 1.84462665 3.43683071 2.71451375 3.43683071 3.86789084 2.80383251 4.93971601 1.5028853 4.93971601ZM1.5028853 4.31060123C2.36500554 4.31060123 2.72616402 3.50284893 2.72616402 2.71063033 2.72616402 2.22520226 2.44267403 1.94559569 1.92617857 1.94559569 1.06405832 1.94559569.702899841 2.753348.702899841 3.5455666.702899841 4.03487809.990273256 4.31060123 1.5028853 4.31060123ZM5.03680162 4.86981437 4.47370506 4.86981437 4.40380342 4.79991273 4.88534807 2.08539898 4.81544642 2.01549733 4.35720233 2.01549733 4.28730069 1.94559569 4.3688526 1.46016763 4.43875424 1.39026598 4.94748286 1.39026598 5.0173845 1.32036434 5.06786902 1.04075778C5.18048833.415526425 5.57659763.135919859 6.13192734.135919859L6.75715869.135919859 6.82706033.2058215 6.73774157.691249567 6.66783993.761151209 6.10474337.761151209C5.96494009.761151209 5.81348653.83105285 5.77076886 1.04075778L5.72028434 1.32036434 5.79018598 1.39026598 6.46590185 1.39026598 6.53580349 1.46016763 6.45425158 1.94559569 6.38434994 2.01549733 5.66203297 2.01549733 5.59213133 2.08539898 5.11058669 4.79991273 5.03680162 4.86981437ZM9.12216423 3.51061578C9.12216423 2.30675417 9.73962873 1.32036434 11.0056251 1.32036434 11.9454139 1.32036434 12.403658 1.91841172 12.403658 2.68344635 12.403658 2.83101649 12.3881243 2.97470319 12.3609403 3.13004018L12.3182226 3.3397451 12.2405541 3.40964674 9.92214969 3.40964674 9.84059777 3.47954838C9.84059777 3.47954838 9.83283092 3.50673236 9.83283092 3.60381797 9.83283092 3.84847371 9.93768339 4.31448466 10.6172827 4.31448466 10.8968892 4.31448466 11.1803792 4.24458302 11.3823173 3.89895823L11.4638692 3.82905659 12.0191989 3.82905659 12.0735669 3.89895823C11.9065796 4.45428794 11.4755195 4.94359943 10.5706816 4.94359943 9.6386597 4.93971601 9.12216423 4.31836808 9.12216423 3.51061578ZM11.6735742 2.78053197C11.6891079 2.71839717 11.6929913 2.66402923 11.6929913 2.58636074 11.6929913 2.32228787 11.5609548 1.94559569 10.9706743 1.94559569 10.2056397 1.94559569 10.0037016 2.57082704 9.96098393 2.78053197L10.0231187 2.85043361 11.5959057 2.85043361 11.6735742 2.78053197Z"/><polygon points="15.681 4.87 15.514 4.87 15.374 4.8 14.555 3.631 14.485 3.631 13.324 4.8 13.184 4.87 12.831 4.87 12.761 4.8 12.85 4.314 14.101 3.083 14.108 3.014 13.336 1.949 13.417 1.464 13.487 1.394 13.654 1.394 13.794 1.464 14.559 2.548 14.629 2.548 15.708 1.464 15.848 1.394 16.202 1.394 16.272 1.464 16.19 1.949 15.013 3.099 15.006 3.169 15.84 4.318 15.751 4.804"/><path d="M18.2016108 4.93971601C17.3744414 4.93971601 16.6987255 4.43098739 16.6987255 3.54945002 16.6987255 2.40772321 17.2618221 1.32424777 18.6171372 1.32424777 19.5219751 1.32424777 20.0501209 1.84074323 20.0501209 2.38053924 20.0501209 2.42714033 20.0501209 2.46209116 20.042354 2.50480883L19.9724524 2.57471047 19.4171227 2.57471047 19.347221 2.50480883 19.347221 2.469858C19.347221 2.1203498 19.0676145 1.94947912 18.6171372 1.94947912 17.755017 1.94947912 17.4016253 2.69898005 17.4016253 3.54945002 17.4016253 4.11254658 17.7899678 4.31448466 18.2443285 4.31448466 18.6287875 4.31448466 18.962762 4.2096322 19.1491664 3.75915495L19.219068 3.68925331 19.7743977 3.68925331 19.8442994 3.75915495C19.5724597 4.73001108 18.9122775 4.93971601 18.2016108 4.93971601ZM20.6714688 3.51061578C20.6714688 2.30675417 21.2889333 1.32036434 22.5549297 1.32036434 23.4947184 1.32036434 23.9529625 1.91841172 23.9529625 2.68344635 23.9529625 2.83101649 23.9374288 2.97470319 23.9102449 3.13004018L23.8675272 3.3397451 23.7898587 3.40964674 21.4714543 3.40964674 21.3899023 3.47954838C21.3899023 3.47954838 21.3821355 3.50673236 21.3821355 3.60381797 21.3821355 3.84847371 21.486988 4.31448466 22.1665872 4.31448466 22.4461938 4.31448466 22.7296838 4.24458302 22.9316219 3.89895823L23.0131738 3.82905659 23.5685035 3.82905659 23.6228714 3.89895823C23.4558842 4.45428794 23.0248241 4.94359943 22.1199862 4.94359943 21.1879643 4.93971601 20.6714688 4.31836808 20.6714688 3.51061578ZM23.2228787 2.78053197C23.2384124 2.71839717 23.2422958 2.66402923 23.2422958 2.58636074 23.2422958 2.32228787 23.1102594 1.94559569 22.5199789 1.94559569 21.7549442 1.94559569 21.5530062 2.57082704 21.5102885 2.78053197L21.5724233 2.85043361 23.1452102 2.85043361 23.2228787 2.78053197Z"/><polygon points="25.223 4.87 24.66 4.87 24.59 4.8 25.425 .07 25.495 0 26.058 0 26.128 .07 25.293 4.8"/><polygon points="27.102 4.87 26.539 4.87 26.469 4.8 27.304 .07 27.374 0 27.937 0 28.007 .07 27.172 4.8"/><path d="M28.3956002 3.51061578C28.3956002 2.30675417 29.0130647 1.32036434 30.2790611 1.32036434 31.2188498 1.32036434 31.6770939 1.91841172 31.6770939 2.68344635 31.6770939 2.83101649 31.6615602 2.97470319 31.6343763 3.13004018L31.5916586 3.3397451 31.5139901 3.40964674 29.1955857 3.40964674 29.1140337 3.47954838C29.1140337 3.47954838 29.1062669 3.50673236 29.1062669 3.60381797 29.1062669 3.84847371 29.2111194 4.31448466 29.8907186 4.31448466 30.1703252 4.31448466 30.4538152 4.24458302 30.6557533 3.89895823L30.7373052 3.82905659 31.2926349 3.82905659 31.3470028 3.89895823C31.1800156 4.45428794 30.7489555 4.94359943 29.8441176 4.94359943 28.9082122 4.93971601 28.3956002 4.31836808 28.3956002 3.51061578ZM30.9470101 2.78053197C30.9625438 2.71839717 30.9664272 2.66402923 30.9664272 2.58636074 30.9664272 2.32228787 30.8343908 1.94559569 30.2441103 1.94559569 29.4790756 1.94559569 29.2771376 2.57082704 29.2344199 2.78053197L29.2965547 2.85043361 30.8693416 2.85043361 30.9470101 2.78053197ZM35.2459611 4.86981437 34.6828645 4.86981437 34.6129629 4.79991273 34.9547042 2.85043361C34.9702379 2.76888169 34.9818882 2.60189444 34.9818882 2.52422595 34.9818882 2.20966856 34.8576186 1.94559569 34.4187917 1.94559569 33.8634619 1.94559569 33.4712361 2.22520226 33.3275494 3.06013853L33.012992 4.79991273 32.9430903 4.86981437 32.3799938 4.86981437 32.3100921 4.79991273 32.9003727 1.46016763 32.9702743 1.39026598 33.4634692 1.39026598 33.5333709 1.46016763 33.552788 1.73977419 33.6226896 1.73977419C33.7469592 1.56502009 34.038216 1.32424777 34.5974292 1.32424777 35.3818809 1.32424777 35.6964383 1.84074323 35.6964383 2.41549006 35.6964383 2.4853917 35.6809046 2.69898005 35.6537207 2.85431703L35.3119793 4.80379615 35.2459611 4.86981437ZM37.9604748 4.93971601C37.1333054 4.93971601 36.4575895 4.43098739 36.4575895 3.54945002 36.4575895 2.40772321 37.0206861 1.32424777 38.3760013 1.32424777 39.2808392 1.32424777 39.8089849 1.84074323 39.8089849 2.38053924 39.8089849 2.42714033 39.8089849 2.46209116 39.8012181 2.50480883L39.7313164 2.57471047 39.1759867 2.57471047 39.1060851 2.50480883 39.1060851 2.469858C39.1060851 2.1203498 38.8264785 1.94947912 38.3760013 1.94947912 37.513881 1.94947912 37.1604894 2.69898005 37.1604894 3.54945002 37.1604894 4.11254658 37.5488318 4.31448466 38.0031925 4.31448466 38.3876515 4.31448466 38.721626 4.2096322 38.9080304 3.75915495L38.9779321 3.68925331 39.5332618 3.68925331 39.6031634 3.75915495C39.3313237 4.73001108 38.6711415 4.93971601 37.9604748 4.93971601ZM40.4303328 3.51061578C40.4303328 2.30675417 41.0477973 1.32036434 42.3137937 1.32036434 43.2535825 1.32036434 43.7118266 1.91841172 43.7118266 2.68344635 43.7118266 2.83101649 43.6962929 2.97470319 43.6691089 3.13004018L43.6263912 3.3397451 43.5487227 3.40964674 41.2303183 3.40964674 41.1487664 3.47954838C41.1487664 3.47954838 41.1409995 3.50673236 41.1409995 3.60381797 41.1409995 3.84847371 41.245852 4.31448466 41.9254513 4.31448466 42.2050578 4.31448466 42.4885478 4.24458302 42.6904859 3.89895823L42.7720378 3.82905659 43.3273675 3.82905659 43.3817355 3.89895823C43.2147482 4.45428794 42.7836881 4.94359943 41.8788502 4.94359943 40.9468283 4.93971601 40.4303328 4.31836808 40.4303328 3.51061578ZM42.9856262 2.78053197C43.0011599 2.71839717 43.0050433 2.66402923 43.0050433 2.58636074 43.0050433 2.32228787 42.8730069 1.94559569 42.2827263 1.94559569 41.5176917 1.94559569 41.3157536 2.57082704 41.273036 2.78053197L41.3351708 2.85043361 42.9079577 2.85043361 42.9856262 2.78053197Z"/></g><g transform="translate(121.404 20.862)"><path fill="#F2B136" d="M0,0 L3.55333345,4.10866316 L0,8.21732632 L21.3899023,8.21732632 C24.3917895,8.21732632 26.8228133,10.6483501 26.8228133,13.6502372 L26.8228133,19.8637165 L29.4829591,13.2851953 C33.0362925,5.4600949 27.7315346,0 18.5860698,0 L0,0 Z"/><g fill="#FFF" transform="translate(6.474 2.548)"><polygon points="1.398 2.217 1.181 3.448 1.13 3.499 .528 3.499 .478 3.448 .695 2.217 0 .594 .082 .101 .132 .05 .419 .05 .516 .101 1.072 1.429 1.169 1.429 2.186 .101 2.283 .05 2.699 .05 2.749 .101 2.664 .594"/><polygon points="5.316 3.495 2.99 3.495 2.94 3.445 3.53 .097 3.581 .047 5.907 .047 5.957 .097 5.872 .59 5.821 .641 4.179 .641 4.128 .691 4.004 1.382 4.004 1.433 5.565 1.433 5.615 1.483 5.526 1.977 5.476 2.027 3.934 2.027 3.883 2.078 3.74 2.866 3.79 2.916 5.402 2.916 5.452 2.967 5.363 3.46"/><path d="M8.96294383 3.49508208 8.5474174 3.49508208 8.49693288 3.44459756 8.36489645 2.80383251 8.26781084 2.753348 7.03676526 2.753348 6.93967964 2.80383251 6.58240459 3.44459756 6.53192007 3.49508208 6.05814227 3.49508208 6.00765776 3.44459756 6.09697652 2.95140265 7.73189825.0970856134 7.78238277.0466010944 8.42314782.0466010944 8.47363234.0970856134 9.10274711 2.95140265 9.01342835 3.44459756 8.96294383 3.49508208ZM8.00762139.935905313 7.95713687.935905313 7.30860497 2.11646637 7.35908949 2.16695089 8.19790919 2.16695089 8.24839371 2.11646637 8.00762139.935905313ZM12.120168 2.07763213 12.1085177 2.12811665 12.5939458 2.95528607 12.504627 3.44848099 12.4502591 3.49896551 12.2056033 3.49896551 12.1124011 3.44848099 11.3551333 2.16695089 11.2658146 2.11646637 10.7143683 2.11646637 10.6638838 2.16695089 10.4386452 3.44848099 10.3881606 3.49896551 9.78622983 3.49896551 9.73574531 3.44848099 10.3260258.100969038 10.3765104.050484519 11.9182299.050484519C12.6017126.050484519 13.0405671.396109303 13.0405671.963089285 13.044423 1.56502009 12.6366634 1.96112939 12.120168 2.07763213ZM11.7667763 1.52618584C12.0968674 1.52618584 12.34929 1.33978146 12.34929.95920586 12.34929.714550114 12.1823028.640765048 11.9259967.640765048L10.9823246.640765048 10.9318401.691249567 10.7920368 1.47958475 10.8425213 1.53006927 11.7667763 1.53006927 11.7667763 1.52618584ZM14.7608967 3.5455666C13.8444085 3.5455666 13.4133483 3.06790538 13.4133483 2.53587622 13.4133483 2.46209116 13.4211152 2.41160664 13.4211152 2.41160664L13.4715997 2.36112212 14.0735305 2.36112212 14.124015 2.41160664C14.124015 2.41160664 14.1123648 2.46209116 14.1123648 2.53587622 14.1123648 2.79994909 14.2987691 2.95528607 14.8152646 2.95528607 15.1647728 2.95528607 15.5919495 2.85820046 15.5919495 2.42325691 15.5919495 2.16695089 15.3744777 2.1048161 14.7880806 1.98054651 14.1395487 1.84074323 13.7201389 1.55336981 13.7201389 1.00580695 13.7201389.24853917 14.4890569-5.51867819e-15 15.1375888-5.51867819e-15 16.0346599-5.51867819e-15 16.4035852.427176699 16.4035852.912604766 16.4035852.986389832 16.391935 1.03687435 16.391935 1.03687435L16.3414504 1.08735887 15.7395196 1.08735887 15.6890351 1.03687435C15.6890351 1.03687435 15.7006854.986389832 15.7006854.912604766 15.7006854.691249567 15.5492318.594163954 15.0793375.594163954 14.8074978.594163954 14.4152719.652415322 14.4152719 1.00969038 14.4152719 1.24269585 14.5783757 1.32813119 15.1803065 1.4562842 15.8366053 1.59608748 16.2793157 1.82909296 16.2793157 2.42714033 16.2831991 3.23877606 15.514281 3.5455666 14.7608967 3.5455666Z"/></g></g></g></svg>